<?xml version="1.0" encoding="iso-8859-1"?>
<!-- Generator: Adobe Illustrator 19.0.0, SVG Export Plug-In . SVG Version: 6.00 Build 0)  -->
<svg version="1.1" id="Layer_1" xmlns="http://www.w3.org/2000/svg" xmlns:xlink="http://www.w3.org/1999/xlink" x="0px" y="0px"
	 viewBox="0 0 307.168 307.168" style="enable-background:new 0 0 307.168 307.168;" xml:space="preserve">
<g>
	<g>
		<g>
			<path d="M203.16,217.356c0.688-2.1,1.364-4.228,2-6.46c0.072-0.248,0.132-0.504,0.2-0.752c0.044-0.028,0.084-0.024,0.128-0.056
				c18.38-13.144,48.104-24.828,50.208-50.936c0.792-9.816-3.736-21.136-14.312-23.32c-10.36-2.14-19.292,5.06-26.3,12.272
				c0.744-11.46,0.904-21.052,0.904-27.036c0-2.212-0.212-9.328-0.352-11.496l-0.04,0.048c-0.56-11.624-21.616-19.46-46.196-22.116
				c-1.276-1.436-2.664-2.756-4.268-3.784c-4.416-2.828-9.584-3.724-14.532-2.52l-12.276,2.976c-2.64,0.64-5.032,1.848-7.132,3.448
				c-23.464,2.692-43.428,10.132-45,21.076l-0.048-0.072c-0.016,0.24-0.032,0.58-0.052,0.948c-0.008,0.172-0.06,0.332-0.06,0.508
				c0,0.064,0.024,0.12,0.024,0.184c-0.152,3.188-0.356,8.972-0.356,10.8c0,23.572,3.268,59.556,12.448,89.864
				c0.772,2.552,1.584,5.008,2.416,7.396C80.604,223.26,64.3,230.9,54.84,240.464c-6.02,6.084-9.04,12.616-8.976,19.412
				c0.252,26.56,47.52,47.292,107.696,47.292h0.456c42.796-0.076,81.392-11.18,98.312-28.292c6.02-6.084,9.04-12.612,8.976-19.408
				C261.136,240.848,237.812,225.112,203.16,217.356z M214.628,154.432c7.792-8.524,19.82-20.5,31.768-11.764
				c12.116,8.86,2.716,29.152-4.904,37.184c-9.536,10.048-22.944,16.684-34.568,24.428c0.412-1.656,0.792-3.324,1.172-4.992
				c7.308-3.548,22.752-13.136,30.2-22.144c4.992-6.04,7.724-11.084,8.592-15.888c0.916-5.088-0.592-12.092-5.208-15.048
				c-2.756-1.76-7.66-2.736-15.34,2.636c-2.692,1.888-8.256,6.588-12.092,10.06C214.392,157.388,214.512,155.908,214.628,154.432z
				 M227.652,150.708c5.26-3.692,9.696-4.588,12.812-2.584c3.648,2.332,4.996,8.304,4.196,12.732
				c-0.796,4.404-3.376,9.12-8.108,14.848c-6.728,8.14-20.236,16.784-27.824,20.732c2.464-11.568,4.104-23.284,5.188-34.128
				C217.436,158.968,224.52,152.9,227.652,150.708z M211.66,110.088c0,1.56-0.724,3.132-1.992,4.68
				c-3.328-5.876-17.444-9.856-34.4-11.772c-0.008-1.536-0.124-3.08-0.428-4.612c-0.464-2.364-1.364-4.548-2.468-6.6
				C196.508,94.808,211.66,102.64,211.66,110.088z M207.964,116.508c-6,5.288-19.076,9.98-36.936,12.052
				c-0.488,0.056-0.956,0.12-1.448,0.172c-1.056,0.112-2.156,0.196-3.244,0.292c-0.96,0.084-1.908,0.176-2.888,0.244
				c-0.932,0.064-1.908,0.1-2.86,0.152c-1.1,0.056-2.184,0.128-3.308,0.168c-2.1,0.072-4.24,0.112-6.432,0.112
				c-2.188,0-4.332-0.04-6.432-0.112c-1.124-0.04-2.208-0.108-3.312-0.168c-0.952-0.048-1.924-0.088-2.856-0.152
				c-0.984-0.068-1.932-0.16-2.896-0.244c-1.084-0.092-2.184-0.18-3.24-0.292c-0.496-0.052-0.964-0.116-1.452-0.172
				c-16.968-1.968-29.656-6.3-36.024-11.264c0.276-4.264,10.816-8.816,27.752-11.352c-0.012,1.636,0.1,3.292,0.428,4.956
				c0.496,2.544,1.456,5.04,2.86,7.42c0.204,0.348,0.576,0.56,0.976,0.56h42.276c0.336,0,0.652-0.148,0.868-0.404
				c3.108-3.696,4.936-8.364,5.364-13.224C194.004,107.448,206.388,112.056,207.964,116.508z M138.86,86.38l12.276-2.976
				c4.352-1.056,8.888-0.26,12.776,2.228c4.436,2.84,7.608,7.652,8.696,13.196c1.244,6.316-0.336,12.924-4.216,17.792h-41.076
				c-1.096-1.988-1.86-4.056-2.268-6.152C122.904,99.556,129.104,88.752,138.86,86.38z M126.924,92.12
				c-2.38,3.284-3.904,7.24-4.348,11.504c-15.46,2.2-27.644,6.244-29.836,11.976c-1.752-1.812-2.7-3.676-2.7-5.516
				C90.036,102.896,104.2,95.348,126.924,92.12z M89.844,129.312c2.504,3.192,6.316,5.092,8.564,6.188l0.992-2.04
				c-3.204-1.564-9.088-4.464-9.672-10.096c-0.008-0.772-0.02-1.568-0.02-2.3c0-0.3,0-0.6,0.004-0.904
				c8.664,7.212,30.468,12.656,55.152,13.428c0.004,0,0.008,0,0.016,0c1.976,0.06,3.964,0.104,5.972,0.104s3.996-0.04,5.972-0.104
				c0.004,0,0.008,0,0.012,0c24.684-0.772,46.492-6.212,55.156-13.428c0.004,0.3,0.004,0.6,0.004,0.904
				c0,1.192-0.008,2.644-0.032,4.28c-3.116,12.184-22.16,14.152-31.6,15.12c-0.928,0.092-1.776,0.184-2.52,0.268
				c-21.348,2.492-44.14,3.908-66.232-2.648l-0.648,2.172c12.072,3.584,24.3,4.832,36.388,4.832c10.432,0,20.752-0.932,30.756-2.104
				c0.732-0.084,1.568-0.168,2.484-0.264c8.604-0.88,24.736-2.536,31.252-11.724c-0.672,24.368-4.244,74.8-21.628,106.324
				c-2.16,0.104-4.312,0.48-6.372,1.292l-14.216,5.616c-4.956,1.96-8.864,5.752-10.996,10.672c-1.304,3.008-1.752,6.204-1.532,9.372
				c-2.016,0.336-4.08,0.58-6.252,0.58C103.84,264.856,91.24,173.684,89.844,129.312z M159.344,272.14
				c-2.42,0.26-4.96,0.432-7.676,0.432c-15.02,0-27.084-4.592-30.016-7.916c-0.44-0.496-0.508-0.788-0.5-0.84
				c0.432-1.42,1.16-2.824,4.652-4.392c7.516,6.204,15.892,9.428,25.044,9.428c2.388,0,4.688-0.24,6.948-0.6
				c0.184,0.66,0.308,1.328,0.564,1.972C158.628,270.904,159.012,271.508,159.344,272.14z M160.712,255.808
				c1.896-4.368,5.36-7.732,9.752-9.464l14.216-5.616c2.096-0.828,4.288-1.244,6.488-1.244c2.408,0,4.812,0.496,7.096,1.484
				c4.368,1.896,7.732,5.36,9.464,9.752s1.648,9.22-0.248,13.584c-1.896,4.364-5.356,7.728-9.752,9.46l-14.216,5.616
				c-9.084,3.592-19.448-0.88-23.052-9.996C158.732,265,158.824,260.176,160.712,255.808z M117.328,262.656
				c-0.284,0.94-0.36,2.42,0.908,4.132c4,5.396,19,9.784,33.436,9.784c3.5,0,6.904-0.288,10.172-0.728
				c1.952,2.272,4.352,4.144,7.192,5.376c2.576,1.116,5.288,1.676,8,1.676c2.48,0,4.956-0.468,7.324-1.404l14.216-5.616
				c10.268-4.056,15.324-15.716,11.268-25.992c-1.96-4.956-5.752-8.864-10.672-10.996c-1.432-0.62-2.912-1.016-4.404-1.292
				c0.3-0.568,0.584-1.176,0.876-1.76c16.428,5.408,27.092,13.788,27.18,23.228c0.036,3.908-1.764,7.728-5.356,11.356
				c-11,11.128-36.412,18.352-64.732,18.404h-0.288c-38.676-0.004-70.22-13.228-70.376-29.536
				c-0.036-3.908,1.764-7.728,5.352-11.356c4.632-4.684,11.836-8.664,20.712-11.72c4.308,8.38,9.16,15.156,14.484,20.348
				C119.756,258.14,118.128,260.012,117.328,262.656z M249.512,276.088c-16.22,16.4-53.704,27.04-95.5,27.112h-0.436
				c-57.016,0-103.512-19.416-103.74-43.364c-0.056-5.696,2.584-11.272,7.828-16.58c9.072-9.172,24.856-16.5,44.268-21.228
				c0.356,0.948,4.1,9.892,5.212,12.16c-9.112,3.168-16.532,7.296-21.336,12.152c-4.032,4.076-6.052,8.436-6.008,12.972
				c0.164,17.548,32.728,31.78,72.648,31.776h0.284c28.896-0.052,54.932-7.536,66.34-19.072c4.032-4.076,6.052-8.44,6.008-12.976
				c-0.092-10.244-11.284-19.324-28.484-25.136c1.18-2.464,4.172-9.82,4.228-9.956c0,0,0.676-1.844,1.012-2.78
				c32.828,7.272,55.344,21.696,55.5,38.336C257.396,265.2,254.76,270.776,249.512,276.088z"/>
			<path d="M101.04,136.716c2.352,0.988,4.732,1.88,7.06,2.648l0.712-2.156c-2.272-0.748-4.592-1.616-6.896-2.584L101.04,136.716z"
				/>
			<path d="M157.16,4.736c0.688,0.688,1.316,1.316,1.88,1.992c7.292,8.804,8.124,22.276,1.936,31.332
				c-5.04,7.384-5.952,15.872-2.712,25.232c0.116,0.34,0.264,0.668,0.416,0.996l2.424,5.684l-0.064-5.716
				c-0.084-7.444,2.976-13.512,9.352-18.544c1.26-1,2.384-2.148,3.628-3.424c2.828-2.908,4.376-6.596,4.596-10.964
				c0.672-13.256-7.312-24.312-21.364-29.572L152.572,0l3.464,3.6C156.428,4.004,156.804,4.376,157.16,4.736z M176.352,31.204
				c-0.196,3.86-1.488,6.964-4.116,9.668c-1.036,1.06-2.1,2.152-3.248,3.064c-5.3,4.184-8.504,9.044-9.688,14.74
				c-1.6-7.156-0.424-13.512,3.552-19.332c6.508-9.532,5.9-23.532-1.296-33.088C168.072,9.912,177.048,17.476,176.352,31.204z"/>
			<path d="M139.912,31.92c-0.688,4.752-2.832,9.272-6.56,13.824c-1.752,2.136-3.792,5.064-3.972,8.752
				c-0.384,7.852,5.052,13.848,9.176,17.676l2.416,2.244l-0.66-4.056c-0.66-3.972-0.948-8.152,1.4-11.792
				c1.46-2.268,3.496-4.592,6.4-7.312c5.908-5.54,7.996-12.184,6.204-19.752c-1.804-7.652-10.5-15.136-19.788-17.032l-5.572-1.14
				l4.708,3.188C140.464,21.124,140.636,26.888,139.912,31.92z M152.108,32.024c1.608,6.812-0.208,12.56-5.552,17.572
				c-3.044,2.852-5.188,5.308-6.752,7.744c-2.232,3.46-2.464,7.18-2.084,10.804c-4.408-4.7-6.292-8.96-6.072-13.54
				c0.112-2.36,1.18-4.648,3.46-7.42c3.996-4.88,6.3-9.764,7.048-14.94c0.608-4.216,0.668-9.34-3.108-13.924
				C145.424,21.168,150.832,26.636,152.108,32.024z"/>
		</g>
	</g>
</g>
<g>
</g>
<g>
</g>
<g>
</g>
<g>
</g>
<g>
</g>
<g>
</g>
<g>
</g>
<g>
</g>
<g>
</g>
<g>
</g>
<g>
</g>
<g>
</g>
<g>
</g>
<g>
</g>
<g>
</g>
</svg>
