<?xml version="1.0" encoding="iso-8859-1"?>
<!-- Generator: Adobe Illustrator 19.0.0, SVG Export Plug-In . SVG Version: 6.00 Build 0)  -->
<svg version="1.1" id="Layer_1" xmlns="http://www.w3.org/2000/svg" xmlns:xlink="http://www.w3.org/1999/xlink" x="0px" y="0px"
	 viewBox="0 0 269.688 269.688" style="enable-background:new 0 0 269.688 269.688;" xml:space="preserve">
<g>
	<g>
		<g>
			<path d="M174.105,130.336l-3.028,0.496l-1.036-7.956c-0.068-0.468-0.5-0.796-0.952-0.74c-0.468,0.064-0.796,0.492-0.736,0.964
				l1.044,8.004l-5.732,0.936c-0.464,0.076-0.776,0.512-0.704,0.976c0.068,0.42,0.428,0.716,0.836,0.716
				c0.044,0,0.088,0,0.136-0.008l5.676-0.928l1.64,12.568c0.06,0.432,0.42,0.744,0.844,0.744c0.036,0,0.076,0,0.108-0.004
				c0.468-0.064,0.796-0.492,0.736-0.964l-1.644-12.62l3.084-0.504c0.464-0.076,0.776-0.512,0.704-0.976
				C175.001,130.58,174.593,130.252,174.105,130.336z"/>
			<path d="M202.077,88.288c-0.408-2.424-1.744-4.552-3.752-5.984c-2.012-1.436-4.472-2.004-6.884-1.592l-7.016,1.176
				c2.076-3.984,3.32-8.464,3.32-13.256c0-11.112-6.292-20.772-15.496-25.632c0.54-3.584,0.2-6.772-1.224-9.42
				c-2.796-5.2-9.004-8.036-14.096-9.92c-1.052-0.392-2.116-0.764-3.188-1.14c-4.16-1.464-8.464-2.98-11.66-5.372
				c-3.108-2.328-4.548-9.944-2.892-13.964c0.268-0.408,0.5-0.844,0.696-1.316L136.369,0c-0.248,0.368-0.468,0.764-0.664,1.188
				c-1.696,2.304-5.988,3.356-10.148,4.38c-1.096,0.268-2.18,0.536-3.212,0.824c-9.556,2.664-17.952,9.46-22.464,18.176
				c-3.692,7.14-5.004,15.372-4.012,25.168c0.048,0.504,0.128,1.148,0.276,1.864c-4.872,2.832-8.812,7.02-11.364,12.188
				c-3.432,6.94-3.956,14.8-1.472,22.136c1.532,4.532,4.144,8.484,7.524,11.68l-4.424,0.744c-5.024,0.844-8.42,5.616-7.58,10.636
				c0.408,2.424,1.74,4.552,3.752,5.988c1.584,1.132,3.44,1.724,5.348,1.724c0.124,0,0.248-0.028,0.372-0.032l41.44,85.764
				c-2.144-0.292-4.16-0.328-6.016-0.052c-2.712-5.412-6.576-10.972-12.224-14.784c-14.412-9.732-33.916-4.012-34.74-3.764
				l-1.176,0.356l0.184,1.216c0.132,0.864,3.32,20.756,16.684,30.784c-0.128,0.036-0.26,0.056-0.388,0.096
				c-15.596,4.724-23.804,23.76-24.144,24.568l-0.44,1.048l0.92,0.66c0.58,0.416,12.068,8.496,24.908,8.496
				c2.608,0,5.272-0.332,7.912-1.132c3.784-1.144,7.096-3.164,10-5.536c1.82,4.98,4.684,9,8.896,10.736
				c1.48,0.612,3.06,0.916,4.724,0.916c2.252,0,4.668-0.56,7.216-1.68c6.12-2.692,11.912-8.124,16.096-13.828l11.556,23.916
				c1.592,3.296,4.724,5.244,8.244,5.244c0.536,0,1.084-0.044,1.632-0.14c4.16-0.7,7.168-3.86,7.66-8.048l19.26-163.152
				C200.385,96.72,202.805,92.604,202.077,88.288z M183.777,68.632c0,5.224-1.616,10.08-4.368,14.096c0.008,0,0.02,0,0.028,0
				l-35.528,5.964c-6.148-4.56-10.164-11.832-10.164-20.06c0-13.792,11.224-25.016,25.016-25.016S183.777,54.836,183.777,68.632z
				 M138.773,89.552l-2.892,0.484c0.048-0.096,0.112-0.18,0.156-0.276c0.344-0.712,0.6-1.448,0.876-2.18
				C137.505,88.26,138.117,88.928,138.773,89.552z M152.413,26.288c1.048,0.368,2.092,0.74,3.124,1.12
				c4.088,1.512,9.78,3.996,11.964,8.064c0.876,1.632,1.184,3.612,0.98,5.888c-3.044-1.088-6.308-1.712-9.72-1.712
				c-0.804,0-1.592,0.056-2.38,0.12c-0.004-2.236-0.332-4.432-1.16-6.496c-1.096-2.728-2.796-4.04-5.188-5.588
				c-2.9-1.876-6.156-2.616-8.7-5.22c-0.58-0.592-1.004-1.304-1.46-1.992C143.537,23.148,148.041,24.752,152.413,26.288z
				 M135.545,16.784c1.02,3.092,2.6,5.916,5.308,8.196c2.348,1.98,5.932,2.616,8.036,4.66c3.208,3.116,4.576,6.732,4.796,10.48
				c-6.064,1.076-11.48,4.028-15.62,8.256c0.14-1.264,0.176-2.572,0.056-3.956c-0.404-4.652-2.4-9.068-3.004-13.72
				C134.509,25.996,134.817,21.372,135.545,16.784z M134.257,11.28c-1.412,6.436-2.38,13.004-1.556,19.588
				c1.096,8.752,4.676,15.968,1.172,22.98c-0.268,0.448-0.536,0.896-0.78,1.364c-0.36,0.56-0.768,1.12-1.228,1.68
				c-2.332-2.528-5.076-4.676-8.256-6.248c-4.676-2.308-9.76-3.264-14.82-2.912c0.204-14.448,16.136-28.116,25.156-38.636
				C134.037,9.828,134.141,10.556,134.257,11.28z M103.437,26.408c4.008-7.748,11.48-13.788,19.988-16.164
				c0.988-0.276,2.032-0.532,3.084-0.792c1.836-0.452,3.712-0.98,5.52-1.6c-9.7,11.228-25.684,24.856-25.572,40.132
				c-1.676,0.256-3.344,0.636-4.988,1.192c-0.528,0.18-1.032,0.4-1.544,0.608c-0.016-0.16-0.06-0.276-0.076-0.448
				C98.937,40.336,100.113,32.836,103.437,26.408z M87.065,84.648c-2.14-6.328-1.692-13.112,1.268-19.104
				c2.96-5.988,8.08-10.468,14.412-12.608c2.628-0.888,5.34-1.332,8.04-1.332c3.792,0,7.564,0.876,11.064,2.604
				c3.568,1.764,6.504,4.36,8.812,7.46c-0.556,2.236-0.88,4.56-0.88,6.964c0,5.684,1.676,10.964,4.52,15.436
				c-0.372,1.384-0.848,2.748-1.484,4.064c-0.46,0.952-1.004,1.84-1.592,2.688l-35.08,5.888
				C91.97,93.708,88.746,89.612,87.065,84.648z M100.285,132.332l21.188-3.556l5.156,24.868l-14.928,2.32L100.285,132.332z
				 M112.478,157.56l14.5-2.252l4.724,22.78l-8.62,1.42L112.478,157.56z M142.425,206.74c0.092-0.116,0.196-0.2,0.268-0.352
				c0.124-0.26,0.172-0.532,0.28-0.792l14.988-2.316l3.996,23.512l-7.672,1.232C156.249,219.26,152.141,211.868,142.425,206.74z
				 M155.053,175.964l18.976-3.128l4.08,25.608l-18.744,2.896L155.053,175.964z M157.678,201.604l-14.056,2.172
				c1.232-4.052,1.004-8.256-0.832-12.244c-1.076-2.336-4.524-0.304-3.456,2.02c1.592,3.452,1.544,7.396-0.096,10.816
				c-0.016,0.028-0.008,0.056-0.02,0.088l-0.304,0.048l-5.188-25.024l19.644-3.236L157.678,201.604z M133.381,177.816l-4.72-22.768
				l20.564-3.196l3.86,22.716L133.381,177.816z M123.853,181.108l8.192-1.348l5.1,24.604c-0.836-0.312-1.656-0.592-2.46-0.836
				L123.853,181.108z M109.918,189.924c4.948,3.344,8.444,8.268,10.964,13.16c-0.396,0.136-0.796,0.26-1.176,0.424
				c-2.304,1.012-4.216,2.644-5.808,4.748l-33.24-22.444C86.565,184.656,99.837,183.124,109.918,189.924z M92.893,218.98
				c5.644-1.704,11.524-0.988,16.592,0.496c-0.456,2.624-0.724,5.496-0.76,8.468L71.941,239.08
				C74.813,233.696,82.017,222.272,92.893,218.98z M84.077,246.772c-4.84-1.384-8.956-3.484-11.452-4.932l14.172-4.292
				L84.077,246.772z M91.941,248.124c-1.74-0.088-3.456-0.316-5.116-0.664l3.216-10.896l5.172-1.568L91.941,248.124z
				 M99.677,247.364c-1.596,0.424-3.204,0.668-4.808,0.756l3.508-14.076l5.596-1.692L99.677,247.364z M102.957,246.208l4.244-14.836
				l1.564-0.476c0.144,3.588,0.644,7.192,1.532,10.52C108.113,243.328,105.673,245.012,102.957,246.208z M110.981,213.612
				c-0.34,0.932-0.636,1.976-0.904,3.064c-4.18-1.2-8.884-1.892-13.664-1.3c-0.404-0.24-0.82-0.416-1.208-0.676
				c-10.068-6.8-14.388-20.164-15.916-26.392l33.06,22.324C111.849,211.56,111.377,212.532,110.981,213.612z M130.457,250.704
				c-3.4,1.496-6.372,1.74-8.828,0.732c-9.392-3.868-10.956-25.46-6.924-36.46c1.428-3.9,3.652-6.536,6.596-7.832
				c1.516-0.668,3.264-0.996,5.224-0.996c3.084,0,6.68,0.824,10.648,2.456c11.7,4.82,15.936,11.88,12.596,20.988
				C147.118,236.828,138.981,246.956,130.457,250.704z M163.277,262.7l-12.584-26.048c1.168-1.964,2.148-3.9,2.804-5.692
				c0.144-0.388,0.184-0.752,0.304-1.136l8.44-1.356l6.312,37.164C166.709,265.812,164.477,265.172,163.277,262.7z M173.305,261.016
				c-0.268,2.252-1.616,3.568-3.088,4.2l-6.292-37.02l13.508-2.172L173.305,261.016z M177.645,224.268l-14.004,2.252l-3.992-23.5
				l18.728-2.892l1.216,7.636L177.645,224.268z M180.325,201.548l-0.268-1.684l0.476-0.072L180.325,201.548z M180.741,198.04
				l-0.948,0.148l-4.084-25.624l6.876-1.132c0.464-0.076,0.776-0.516,0.704-0.98c-0.08-0.46-0.476-0.784-0.976-0.7l-6.868,1.132
				l-2.504-15.728c-0.076-0.464-0.484-0.788-0.976-0.712c-0.46,0.076-0.776,0.516-0.704,0.984l2.508,15.732l-18.992,3.128
				l-3.856-22.7l35.972-5.592L180.741,198.04z M189.021,127.9l-9.808,1.608c-0.464,0.076-0.776,0.512-0.704,0.976
				c0.072,0.416,0.428,0.712,0.84,0.712c0.044,0,0.088,0,0.136-0.008l9.328-1.528l-1.724,14.6l-36.464,5.668l-2.968-17.476
				c-0.084-0.464-0.496-0.772-0.984-0.7c-0.46,0.08-0.772,0.524-0.696,0.992l2.964,17.444l-20.628,3.204l-5.16-24.888l13.324-2.236
				c0.464-0.076,0.776-0.516,0.7-0.98c-0.08-0.464-0.532-0.772-0.98-0.696l-13.388,2.248l-2.556-12.324
				c-0.092-0.464-0.552-0.752-1.008-0.664c-0.456,0.096-0.752,0.552-0.656,1.016l2.54,12.252l-21.616,3.628l-7.092-14.68
				l43.616-7.364c-0.02,0.432-0.144,1.092-0.248,1.596c-0.248,1.22-0.556,2.736-0.376,4.368c0.296,2.692,1.796,6.272,4.392,7.768
				c1.34,0.768,2.828,0.872,4.192,0.276c2.876-1.264,3.48-4.624,4.016-7.588c0.316-1.748,0.752-4.144,1.584-4.332
				c0.088-0.012,0.212-0.048,0.452,0.124c0.948,0.652,1.916,2.832,2.24,5.076c0.476,3.252,1.268,8.704,5.388,9.952
				c0.456,0.14,0.92,0.208,1.384,0.208c0.972,0,1.94-0.308,2.808-0.904c1.932-1.328,3.32-4.036,3.528-6.908
				c0.124-1.784-0.06-3.524-0.236-5.208c-0.172-1.6-0.332-3.112-0.22-4.564c0.116-1.592,0.904-3.26,1.82-3.88
				c0.36-0.244,0.588-0.22,0.792-0.16c1.508,0.484,2.024,3.756,2.472,6.648c0.648,4.128,1.38,8.808,5.564,9.548
				c1.52,0.272,2.952-0.192,4.092-1.292c2.236-2.156,2.816-6.204,2.416-9.052c-0.648-4.584,0.136-9.016,1.212-9.3
				c1.708-0.452,2.896-0.556,4.4-0.684c1.244-0.108,2.596-0.224,4.42-0.552c0.08-0.016,0.14-0.064,0.216-0.084L189.021,127.9z
				 M193.837,95.012l-11.232,1.924c-0.424,0.072-0.768,0.3-1.048,0.584c-4.804,2.228-3.56,12.216-3.392,13.404
				c0.3,2.12-0.268,4.704-1.244,5.644c-0.292,0.28-0.488,0.264-0.64,0.244c-1.396-0.248-1.896-3.44-2.336-6.256
				c-0.628-4.024-1.344-8.584-5.188-9.816c-1.432-0.46-2.924-0.22-4.22,0.652c-1.948,1.316-3.348,4.012-3.564,6.872
				c-0.136,1.808,0.052,3.576,0.232,5.28c0.168,1.58,0.324,3.076,0.224,4.504c-0.112,1.604-0.896,3.288-1.812,3.92
				c-0.368,0.248-0.588,0.228-0.792,0.168c-1.704-0.516-2.34-4.868-2.608-6.728c-0.4-2.728-1.636-6.204-3.92-7.772
				c-1.096-0.756-2.336-1.004-3.576-0.724c-3.396,0.764-4.072,4.496-4.608,7.496c-0.344,1.892-0.768,4.248-1.716,4.664
				c-0.112,0.052-0.268,0.116-0.604-0.084c-0.984-0.568-2.196-2.616-2.428-4.76c-0.112-1.016,0.104-2.1,0.32-3.144
				c0.384-1.896,1.028-5.064-2.268-6.448c-0.744-0.312-1.328-0.184-3.072,0.172c-1.472,0.308-45.528,7.828-45.528,7.828
				c-2.844,0.472-5.584-1.46-6.068-4.324c-0.484-2.864,1.456-5.584,4.32-6.064L192.101,84.62c1.392-0.232,2.772,0.092,3.924,0.912
				c1.148,0.82,1.912,2.032,2.14,3.412C198.645,91.808,196.709,94.528,193.837,95.012z"/>
			<path d="M140.497,231.636c-0.128,0.004-0.26,0.008-0.388,0.012c-2.568,0.068-2.58,4.072,0,4c0.128-0.004,0.26-0.008,0.388-0.012
				C143.066,235.568,143.074,231.568,140.497,231.636z"/>
			<path d="M126.157,231.432c0.004,0.136,0.008,0.276,0.012,0.412c0.064,2.568,4.064,2.58,4,0c-0.004-0.14-0.008-0.276-0.012-0.412
				C130.093,228.864,126.093,228.852,126.157,231.432z"/>
			<path d="M141.069,215.984c-0.128,0.004-0.26,0.008-0.388,0.012c-2.568,0.072-2.58,4.072,0,4c0.128-0.004,0.26-0.008,0.388-0.012
				C143.637,219.916,143.645,215.916,141.069,215.984z"/>
			<path d="M128.357,213.644c-0.128,0.004-0.26,0.008-0.388,0.012c-2.568,0.072-2.58,4.072,0,4c0.128-0.004,0.26-0.008,0.388-0.012
				C130.925,217.576,130.937,213.576,128.357,213.644z"/>
			<path d="M124.549,243.052c-0.128,0.004-0.26,0.008-0.388,0.012c-2.568,0.072-2.58,4.072,0,4c0.128-0.004,0.26-0.008,0.388-0.012
				C127.117,246.98,127.129,242.98,124.549,243.052z"/>
			<path d="M117.213,224.016c-0.128,0.004-0.26,0.008-0.388,0.012c-2.568,0.072-2.58,4.072,0,4c0.128-0.004,0.26-0.008,0.388-0.012
				C119.785,227.948,119.793,223.948,117.213,224.016z"/>
			<path d="M97.213,73.084c0.128-0.004,0.26-0.008,0.388-0.012c2.568-0.068,2.58-4.068,0-4c-0.128,0.004-0.26,0.008-0.388,0.012
				C94.645,69.156,94.633,73.156,97.213,73.084z"/>
			<path d="M114.701,86.56c0.128-0.004,0.26-0.008,0.388-0.012c2.568-0.072,2.58-4.072,0-4c-0.128,0.004-0.26,0.008-0.388,0.012
				C112.134,82.632,112.121,86.632,114.701,86.56z"/>
			<path d="M116.825,68.16c0.128-0.004,0.26-0.008,0.388-0.012c2.572-0.072,2.58-4.072,0-4c-0.128,0.004-0.26,0.008-0.388,0.012
				C114.257,64.232,114.245,68.232,116.825,68.16z"/>
			<path d="M152.385,72.148c-0.128,0.004-0.26,0.008-0.388,0.012c-2.568,0.072-2.58,4.072,0,4c0.128-0.004,0.26-0.008,0.388-0.012
				C154.957,76.08,154.965,72.08,152.385,72.148z"/>
			<path d="M153.285,51.604c-0.128,0.004-0.26,0.008-0.388,0.012c-2.568,0.072-2.58,4.072,0,4c0.128-0.004,0.26-0.008,0.388-0.012
				C155.853,55.532,155.861,51.532,153.285,51.604z"/>
			<path d="M170.489,62.664c0.128-0.004,0.26-0.008,0.388-0.012c2.568-0.072,2.576-4.072,0-4c-0.128,0.004-0.26,0.008-0.388,0.012
				C167.921,58.736,167.91,62.736,170.489,62.664z"/>
		</g>
	</g>
</g>
<g>
</g>
<g>
</g>
<g>
</g>
<g>
</g>
<g>
</g>
<g>
</g>
<g>
</g>
<g>
</g>
<g>
</g>
<g>
</g>
<g>
</g>
<g>
</g>
<g>
</g>
<g>
</g>
<g>
</g>
</svg>
