<?xml version="1.0" encoding="iso-8859-1"?>
<!-- Generator: Adobe Illustrator 19.0.0, SVG Export Plug-In . SVG Version: 6.00 Build 0)  -->
<svg version="1.1" id="Layer_1" xmlns="http://www.w3.org/2000/svg" xmlns:xlink="http://www.w3.org/1999/xlink" x="0px" y="0px"
	 viewBox="0 0 312.417 312.417" style="enable-background:new 0 0 312.417 312.417;" xml:space="preserve">
<g>
	<g>
		<g>
			<path d="M82.777,85.374c-2.46,0-4.46,2.104-4.46,4.688s2,4.688,4.46,4.688s4.46-2.104,4.46-4.688S85.237,85.374,82.777,85.374z
				 M82.777,91.919c-0.896,0-1.624-0.832-1.624-1.852c0-1.02,0.732-1.852,1.624-1.852c0.892,0,1.624,0.832,1.624,1.852
				C84.401,91.086,83.673,91.919,82.777,91.919z"/>
			<path d="M167.085,153.863c-2.456,0.028-4.432,2.108-4.408,4.636c0.016,1.248,0.508,2.408,1.388,3.268
				c0.832,0.808,1.92,1.256,3.068,1.256c0.02,0,0.036,0,0.056,0c2.456-0.028,4.432-2.108,4.408-4.632
				c-0.016-1.248-0.508-2.412-1.388-3.268C169.357,154.294,168.221,153.83,167.085,153.863z M167.153,160.182
				c-0.296-0.028-0.8-0.156-1.108-0.452c-0.336-0.332-0.528-0.78-0.532-1.268c-0.012-0.964,0.704-1.756,1.604-1.768
				c0.004,0,0.012,0,0.02,0c0.404,0,0.788,0.16,1.088,0.452c0.336,0.332,0.528,0.78,0.532,1.272
				C168.769,159.382,168.049,160.174,167.153,160.182z"/>
			<path d="M312.401,227.842c0-0.056-0.004-0.108-0.004-0.164l-0.036-1.148c-0.004-0.248-0.012-0.488-0.02-0.716h-0.036
				c-0.14-1.816-0.512-3.7-1.648-4.736c-0.596-0.544-1.372-0.784-2.212-0.756l-15.804,1.16l-0.32-0.144l-0.08,0.176l-74.788,5.484
				c4.58-6.268,8.58-12.984,11.896-20.084l54.528-9.3l0.12,0.04l0.02-0.064l18.16-3.096l0.032-0.004
				c2.88-0.58,2.996-4.932,2.748-8.496h0.02l-0.144-1.504c-0.028-0.256-0.052-0.504-0.076-0.744v-0.004h-0.036
				c-0.264-1.796-0.764-3.628-1.98-4.528c-0.652-0.488-1.452-0.656-2.312-0.48l-12.76,2.724l-0.74-0.24l-0.136,0.428l-51.896,11.084
				c3.736-11.68,5.8-24.092,5.748-37c-0.272-66.188-54.196-119.84-120.32-119.84h-0.492c-32.14,0.132-62.304,12.768-84.936,35.584
				s-35.024,53.084-34.896,85.22c0.128,32.136,12.764,62.304,35.584,84.936c22.7,22.516,52.764,34.896,84.72,34.896h0.504
				c33.876-0.136,64.38-14.416,86.164-37.12l70.856-2.2l0.864,0.436l0.24-0.472l8.44-0.264l0.316,0.144l0.072-0.156l21.216-0.66
				h0.036c2.972-0.18,3.392-4.54,3.384-8.148h0.02L312.401,227.842z M212.169,227.382l-8.852,0.648
				c4.944-5.816,9.316-12.128,12.972-18.892l8.3-1.416C221.117,214.714,216.921,221.274,212.169,227.382z M79.973,242.51
				c0.696,0.632,1.592,0.788,2.632,0.788c0.5,0,1.032-0.036,1.584-0.072l103.768-3.22c-18.476,15.228-42.076,24.444-67.832,24.444
				c-58.98,0-106.964-47.984-106.964-106.964S61.145,50.523,120.125,50.523s106.968,47.984,106.968,106.964
				c0,13.552-2.58,26.504-7.204,38.448l-36.028,7.688c9.9-13.124,15.544-28.812,16.2-45.412
				c8.528-7.288,14.248-16.756,14.128-27.232c-0.132-11.852-4.232-21.968-11.852-29.248c-8.016-7.66-19.648-11.656-33.192-11.448
				c-0.396,0.004-0.768,0.044-1.152,0.064c-11.504-8.744-25.356-14.544-40.472-16.12c2.908-3.34,3.22-6.088,3.18-7.26
				c-0.084-2.168-1.24-3.916-2.948-4.452c-0.888-0.28-1.772-0.164-2.588,0.232c-0.104-0.4-0.18-0.816-0.34-1.184
				c-0.916-2.124-2.724-3.652-4.84-4.088c-1.952-0.408-4.12,0.124-5.968,1.444c-1.268,0.908-2.22,2.072-2.752,3.368
				c-0.664,1.624-0.632,3.456,0.084,4.78l1.992-1.08c-0.388-0.72-0.38-1.86,0.024-2.84c0.464-1.14,1.328-1.924,1.968-2.384
				c1.332-0.952,2.868-1.344,4.188-1.068c1.396,0.288,2.596,1.324,3.216,2.764c0.8,1.872,0.652,4.496-0.388,6.848
				c-0.692,1.556-1.744,3.004-3.216,4.48c-7.524,0.052-14.864,1.144-21.92,3.068c-3.54-0.556-6.808-1.156-8.868-1.56
				c-24.48,0-52.936,18.596-52.936,42.576c0,7.576,1.54,14.34,4.344,20.156c-1.204,5.612-1.908,11.368-1.884,17.244
				c0.032,8.412,1.436,16.488,3.86,24.108c-7.8,4.772-12.772,11.872-12.772,19.804c0,12.668,12.48,15.536,26.932,18.856
				c2.776,0.636,5.68,1.304,8.64,2.068c2.728,0.704,5.408,1.04,8.04,1.18c2.324,1.644,4.72,3.176,7.216,4.568l-1.392,0.296
				c-0.44,0.088-0.852,0.152-1.232,0.212c-1.772,0.276-3.984,0.624-3.68,3.732c0.104,1.084,0.476,1.848,1.132,2.332
				c0.524,0.38,1.12,0.516,1.788,0.516c0.756,0,1.6-0.176,2.512-0.368l11.168-1.904c5.372,2.064,11.012,3.548,16.856,4.432
				l-22.68,1.664c-0.444,0.028-0.856,0.032-1.24,0.04c-1.324,0.024-2.468,0.044-3.264,0.88c-0.52,0.548-0.756,1.332-0.728,2.4
				C79.057,241.171,79.369,241.963,79.973,242.51z M92.697,215.63c5.344-4.144,8.412-10.14,8.412-16.452
				c0-14.328-16.18-25.984-36.072-25.984c-7.956,0-15.296,1.888-21.268,5.044c-2.272-7.272-3.596-14.964-3.628-22.98
				c-0.02-4.8,0.476-9.512,1.296-14.136c7.304,12.156,20.864,19.324,38.556,19.324c13.808,0,21.396-10.212,23.684-13.904
				l25.512,4.404l0.304-2c2.916-19.14-13.928-31.152-14.648-31.656l-1.988-1.388l-11.512,26.472
				c-8.244-0.088-14.836-2.496-19.604-7.164c-6.424-6.284-7.932-15.132-8.284-18.788c25.324-4.516,37.948-26.948,41.216-33.688
				c4.884-2.128,8.3-4.304,10.672-6.356c14.56,1.16,27.988,6.332,39.268,14.344c-10.9,1.968-16.98,10.112-18.972,13.296
				l-25.572-3.948l-0.288,1.98c-2.716,18.612,14.296,30.048,15.024,30.524l1.968,1.296l11.212-25.72c0.036,0,0.072,0,0.108,0
				c8.376,0,15.068,2.336,19.9,6.952c6.196,5.92,7.776,14.164,8.176,17.672c-25.268,4.688-37.652,26.56-40.836,33.112
				c-14.924,6.5-15.94,13.372-15.868,15.396c0.08,2.112,1.228,3.828,2.928,4.364c0.352,0.112,0.708,0.168,1.06,0.168
				c0.552,0,1.092-0.148,1.608-0.396c0.108,0.384,0.188,0.78,0.352,1.132c0.936,2.048,2.764,3.508,4.888,3.908
				c0.404,0.076,0.808,0.112,1.224,0.112c1.588,0,3.252-0.548,4.704-1.58c1.26-0.896,2.204-2.036,2.728-3.308
				c0.652-1.6,0.596-3.392-0.144-4.676l-1.964,1.132c0.388,0.668,0.392,1.752,0.012,2.684c-0.452,1.096-1.304,1.864-1.94,2.316
				c-1.328,0.944-2.868,1.34-4.192,1.084c-1.404-0.26-2.612-1.244-3.248-2.62c-0.812-1.78-0.696-4.3,0.312-6.572
				c0.84-1.888,2.212-3.62,4.32-5.452c0.84-0.736,1.716-1.416,2.588-2.096c0.36-0.28,0.708-0.588,1.064-0.872l0.932-0.176
				c4.684-0.888,19.388,1.424,25.036,2.428c12.404-0.152,25.768-4.956,35.908-12.668c-1.068,16.26-7.036,31.544-17.24,44.172
				l-97.084,20.736c-2.296-1.176-4.528-2.452-6.688-3.84C82.709,220.898,88.289,219.05,92.697,215.63z M65.529,216.255
				c-3-0.772-5.932-1.444-8.744-2.092c-15.236-3.5-23.856-5.92-23.856-14.988c0.004-12.136,14.408-22.012,32.108-22.012
				s32.1,9.876,32.1,22.016c0,5.152-2.44,9.884-6.872,13.316C84.029,217.326,75.017,218.702,65.529,216.255z M69.217,112.714
				c-5.032,1.356-20.1,4.432-27.932-4.504c4.252-11.064,15.284-20.16,27.632-25.06C67.033,89.299,63.941,102.766,69.217,112.714z
				 M115.357,77.026c-0.38,0.3-0.748,0.624-1.124,0.928l-0.884,0.164c-1.988,0.364-5.796,0.104-9.944-0.396
				c4.248-0.852,8.592-1.364,13-1.548C116.053,76.455,115.709,76.75,115.357,77.026z M116.753,78.81
				c0.916-0.72,1.828-1.436,2.712-2.212c2.388-2.096,3.96-4.124,4.96-6.376c0.712-1.608,1.048-3.288,1.068-4.892
				c0.5-0.552,1.044-0.82,1.58-0.656c0.64,0.2,1.312,1.012,1.36,2.372c0.124,3.268-3.172,8.088-12.396,12.576l0.136-0.332
				C116.369,79.134,116.557,78.966,116.753,78.81z M110.441,82.25c-3.912,7.412-16.016,26.488-38.032,30.28
				c-6.456-10.228-1.54-26.44-0.096-30.612c5.22-1.712,10.568-2.688,15.648-2.696C89.661,79.567,102.673,82.158,110.441,82.25z
				 M73.389,130.414c1.348,2.62,3.14,5.248,5.544,7.608c5.08,4.984,11.832,7.748,20.112,8.244
				c-2.868,3.832-9.14,10.216-19.056,10.216c-3.916,0-7.588-0.424-11.036-1.16C72.565,149.067,73.401,138.706,73.389,130.414z
				 M66.045,154.606c-7.664-2.176-13.948-6.208-18.48-11.78c2.472-1.352,6.804-4.316,12.908-10.7
				c4.48-4.684,7.532-8.936,9.48-12.008c0.08,0.452,0.172,0.924,0.28,1.42C70.741,129.09,71.277,146.862,66.045,154.606z
				 M57.377,117.239c4.884,0,9.292-0.916,11.928-1.608c-1.404,2.564-4.824,8.2-10.88,14.532
				c-6.372,6.664-10.584,9.332-12.592,10.364c-4.164-6.124-6.448-13.796-6.448-22.664c-0.004-2.24,0.352-4.424,0.908-6.564
				C45.081,115.898,51.541,117.239,57.377,117.239z M115.933,135.926l5.36-5.848c0.964,1.504,1.84,3.148,2.576,4.956l-6.216,3.78
				l1.476,2.42l5.72-3.48c0.76,2.624,1.156,5.488,0.94,8.576l-20.316-3.504l9.008-20.72c1.368,1.208,3.288,3.12,5.16,5.58
				l-5.8,6.324L115.933,135.926z M180.481,136.406c5.06-1.38,20.008-4.492,27.928,3.988c-4.136,10.708-15.044,19.608-27.312,24.484
				C182.917,158.867,185.793,145.926,180.481,136.406z M177.709,166.119c-5.212,1.724-10.56,2.732-15.652,2.804
				c-1.7-0.312-14.684-2.652-22.448-2.656c3.9-7.292,15.792-25.716,37.676-29.62C183.793,146.403,179.113,162.026,177.709,166.119z
				 M180.373,133.49c1.404-2.532,4.744-7.952,10.656-14.076c6.344-6.564,10.54-9.192,12.524-10.2
				c4.268,5.96,6.572,13.376,6.668,21.808c0.024,2.156-0.304,4.26-0.832,6.324C200.541,129.302,186.189,131.95,180.373,133.49z
				 M188.993,117.442c-4.44,4.6-7.456,8.764-9.364,11.764c-0.084-0.432-0.18-0.876-0.292-1.34c-0.592-7.3-1.332-24.556,3.864-32.06
				c6.484,1.664,12.04,4.624,16.4,8.796c0.776,0.74,1.5,1.528,2.196,2.336C199.337,108.27,195.037,111.19,188.993,117.442z
				 M176.081,119.286c-1.316-2.416-3.044-4.84-5.32-7.02c-5.156-4.944-12.024-7.636-20.456-8.032
				c2.836-3.752,8.972-9.86,18.892-9.984c3.908-0.072,7.576,0.268,11.036,0.92C176.705,101.27,175.985,111.274,176.081,119.286z
				 M133.497,114.446l-5.324,5.752c-0.968-1.424-1.856-2.988-2.608-4.708l6.148-3.716l-1.468-2.424l-5.72,3.456
				c-0.776-2.5-1.196-5.24-1.02-8.192l20.324,3.14l-8.744,20.052c-1.372-1.136-3.304-2.944-5.204-5.28l5.696-6.152L133.497,114.446z
				 M133.957,168.99l-0.1,0.24c-0.188,0.152-0.368,0.316-0.56,0.464c-0.908,0.708-1.812,1.416-2.684,2.172
				c-2.368,2.056-3.924,4.04-4.904,6.244c-0.692,1.56-1.016,3.188-1.02,4.74c-0.504,0.54-1.08,0.812-1.616,0.632
				c-0.776-0.248-1.304-1.144-1.348-2.284C121.613,178.066,124.869,173.406,133.957,168.99z M94.781,229.867l72.14-12.304
				c-13.604,10.444-30.12,16.2-47.564,16.272c-0.112,0-0.216,0-0.324,0C110.557,233.834,102.441,232.367,94.781,229.867z
				 M171.289,216.814l42.168-7.192c-3.764,6.696-8.24,12.928-13.3,18.64l-57.24,4.196
				C153.273,229.254,162.877,223.946,171.289,216.814z M300.889,180.946c0.076-0.012,0.136-0.02,0.192-0.02
				c0.148,0,0.24,0.048,0.308,0.1c0.716,0.528,1.04,2.516,1.22,4.108c0.516,6.264-0.484,7.04-0.832,7.124l-9.568,1.632l4.28-12.004
				L300.889,180.946z M288.541,183.586l5.344-1.14l-4.236,11.884h0.004l-4.848,0.824L288.541,183.586z M285.977,184.13
				l-3.692,11.452l-6,1.024l4.172-11.296L285.977,184.13z M277.841,185.87l-4.128,11.176l-5.36,0.912l3.652-10.84L277.841,185.87z
				 M269.429,187.666l-3.616,10.724L79.061,230.226l-0.6,0.124c-0.928,0.196-2.204,0.456-2.492,0.24
				c-0.076-0.056-0.176-0.276-0.22-0.724c-0.096-0.98-0.096-0.98,1.768-1.272c0.412-0.064,0.856-0.136,1.344-0.232L269.429,187.666z
				 M120.789,272.563c-0.164,0-0.324,0-0.488,0c-30.896,0-59.972-11.976-81.92-33.748c-22.068-21.888-34.284-51.056-34.412-82.136
				c-0.128-31.08,11.86-60.344,33.748-82.412c21.884-22.064,51.056-34.284,82.132-34.412c0.16,0,0.316,0,0.476,0
				c63.936,0,116.084,51.888,116.348,115.884c0.052,13.28-2.192,26.028-6.26,37.94l-7.868,1.68
				c4.388-11.812,6.836-24.56,6.836-37.884c0-60.232-49-109.236-109.236-109.236c-60.232,0-109.232,49-109.232,109.236
				c0,60.236,49,109.236,109.232,109.236c27.344,0,52.312-10.156,71.484-26.824l9.624-0.3
				C180.409,259.842,152.081,272.435,120.789,272.563z M84.661,240.919l-0.608,0.04c-1.044,0.072-2.224,0.156-2.54-0.132
				c-0.12-0.108-0.196-0.404-0.208-0.812c-0.02-0.624,0.1-0.768,0.1-0.768c0.144-0.152,1.06-0.168,1.664-0.176
				c0.416-0.008,0.86-0.016,1.352-0.048l190.196-13.944l-5.128,10.12L84.661,240.919z M277.521,234.95l-5.448,0.168l4.964-9.796
				l-0.728-0.368l6.52-0.476L277.521,234.95z M286.281,234.678l-6.18,0.192l5.364-10.588l5.716-0.42L286.281,234.678z
				 M288.801,234.598l4.952-10.924l5.544-0.408l-5.496,11.176L288.801,234.598z M308.881,233.979l-12.516,0.388l5.552-11.288
				l6.684-0.492c0.024,0,0.048,0,0.072,0c0.24,0,0.364,0.084,0.46,0.168c0.708,0.648,0.9,2.64,0.972,4.296
				C310.205,233.458,309.133,233.95,308.881,233.979z"/>
		</g>
	</g>
</g>
<g>
</g>
<g>
</g>
<g>
</g>
<g>
</g>
<g>
</g>
<g>
</g>
<g>
</g>
<g>
</g>
<g>
</g>
<g>
</g>
<g>
</g>
<g>
</g>
<g>
</g>
<g>
</g>
<g>
</g>
</svg>
